<?xml version="1.0" encoding="UTF-8"?>
<svg height="16px" viewBox="0 0 16 16" width="16px" xmlns="http://www.w3.org/2000/svg">
    <g fill="#241f31">
        <path d="m 8 0 c -4.417969 0 -8 3.582031 -8 8 s 3.582031 8 8 8 s 8 -3.582031 8 -8 s -3.582031 -8 -8 -8 z m 0 0.882812 c 0.257812 0 0.519531 0.015626 0.773438 0.042969 l 0.28125 1.125 c 0.34375 0.058594 0.679687 0.148438 1.003906 0.269531 l 0.804687 -0.832031 c 0.476563 0.207031 0.925781 0.46875 1.34375 0.773438 l -0.320312 1.113281 c 0.265625 0.222656 0.511719 0.46875 0.738281 0.734375 l 1.113281 -0.316406 c 0.308594 0.417969 0.566407 0.867187 0.773438 1.34375 l -0.832031 0.804687 c 0.117187 0.324219 0.207031 0.660156 0.269531 1.003906 l 1.125 0.28125 c 0.027343 0.253907 0.042969 0.515626 0.042969 0.773438 c -0.003907 0.261719 -0.019532 0.519531 -0.046876 0.777344 l -1.125 0.28125 c -0.058593 0.339844 -0.148437 0.671875 -0.269531 0.996094 l 0.835938 0.808593 c -0.210938 0.472657 -0.46875 0.925781 -0.777344 1.34375 l -1.113281 -0.320312 c -0.222656 0.265625 -0.46875 0.511719 -0.734375 0.734375 l 0.320312 1.113281 c -0.417969 0.308594 -0.871093 0.566406 -1.34375 0.777344 l -0.808593 -0.835938 c -0.324219 0.121094 -0.65625 0.210938 -0.996094 0.269531 l -0.28125 1.125 c -0.257813 0.027344 -0.515625 0.042969 -0.777344 0.046876 c -0.261719 -0.003907 -0.519531 -0.019532 -0.777344 -0.046876 l -0.28125 -1.125 c -0.339844 -0.058593 -0.671875 -0.148437 -0.996094 -0.269531 l -0.808593 0.835938 c -0.472657 -0.210938 -0.925781 -0.46875 -1.34375 -0.777344 l 0.320312 -1.113281 c -0.265625 -0.222656 -0.511719 -0.46875 -0.734375 -0.734375 l -1.113281 0.320312 c -0.308594 -0.417969 -0.566406 -0.871093 -0.777344 -1.34375 l 0.835938 -0.808593 c -0.121094 -0.324219 -0.210938 -0.65625 -0.269531 -0.996094 l -1.125 -0.28125 c -0.027344 -0.257813 -0.042969 -0.515625 -0.046876 -0.777344 c 0.003907 -0.261719 0.019532 -0.519531 0.046876 -0.777344 l 1.125 -0.28125 c 0.058593 -0.339844 0.148437 -0.671875 0.269531 -0.996094 l -0.835938 -0.808593 c 0.210938 -0.472657 0.46875 -0.925781 0.777344 -1.34375 l 1.113281 0.320312 c 0.222656 -0.265625 0.46875 -0.511719 0.734375 -0.734375 l -0.320312 -1.113281 c 0.417969 -0.308594 0.871093 -0.566406 1.34375 -0.777344 l 0.808593 0.835938 c 0.324219 -0.121094 0.65625 -0.210938 0.996094 -0.269531 l 0.28125 -1.125 c 0.257813 -0.027344 0.515625 -0.042969 0.777344 -0.046876 z m 0 0"/>
        <path d="m 8 2.527344 c 0.550781 0 1 0.449218 1 1 v 4.199218 c 0 0.550782 -0.449219 1 -1 1 s -1 -0.449218 -1 -1 v -4.199218 c 0 -0.550782 0.449219 -1 1 -1 z m 0 0"/>
        <path d="m 12.21875 8 c 0 0.550781 -0.449219 1 -1 1 h -3.226562 c -0.554688 0 -1 -0.449219 -1 -1 s 0.445312 -1 1 -1 h 3.226562 c 0.550781 0 1 0.449219 1 1 z m 0 0"/>
    </g>
</svg>
