<?xml version="1.0" encoding="UTF-8"?>
<svg height="16px" viewBox="0 0 16 16" width="16px" xmlns="http://www.w3.org/2000/svg" xmlns:xlink="http://www.w3.org/1999/xlink">
    <filter id="a" height="100%" width="100%" x="0%" y="0%">
        <feColorMatrix color-interpolation-filters="sRGB" values="0 0 0 0 1 0 0 0 0 1 0 0 0 0 1 0 0 0 1 0"/>
    </filter>
    <mask id="b">
        <g filter="url(#a)">
            <rect fill-opacity="0.1" height="19.2" width="19.2" x="-1.6" y="-1.6"/>
        </g>
    </mask>
    <clipPath id="c">
        <rect height="152" width="192"/>
    </clipPath>
    <mask id="d">
        <g filter="url(#a)">
            <rect fill-opacity="0.2" height="19.2" width="19.2" x="-1.6" y="-1.6"/>
        </g>
    </mask>
    <clipPath id="e">
        <rect height="152" width="192"/>
    </clipPath>
    <mask id="f">
        <g filter="url(#a)">
            <rect fill-opacity="0.2" height="19.2" width="19.2" x="-1.6" y="-1.6"/>
        </g>
    </mask>
    <clipPath id="g">
        <rect height="152" width="192"/>
    </clipPath>
    <path d="m 5.125 0.40625 c -2.5625 0.824219 -4.242188 2.9375 -4.550781 6.707031 l -0.574219 7.699219 c -0.0351562 0.640625 0.539062 1.1875 1.144531 1.1875 h 13.710938 c 0.605469 0 1.179687 -0.542969 1.144531 -1.1875 l -0.574219 -7.699219 c -0.417969 -3.339843 -2.058593 -5.679687 -4.613281 -6.632812 l -0.8125 1.519531 c 2.671875 0.667969 4 3.246094 4 6 c 0 3.3125 -2.6875 6 -6 6 s -6 -2.6875 -6 -6 c 0.003906 -2.753906 1.328125 -5.335938 4 -6 z m 0 0" fill="#241f31"/>
    <path d="m 8 4 c 1.105469 0 2 0.894531 2 2 v 4 c 0 1.105469 -0.894531 2 -2 2 s -2 -0.894531 -2 -2 v -4 c 0 -1.105469 0.894531 -2 2 -2 z m 0 0" fill="#241f31"/>
    <g mask="url(#b)">
        <g clip-path="url(#c)" transform="matrix(1 0 0 1 -168 -16)">
            <path d="m 70 36 c 22.089844 0 40 17.910156 40 40 s -17.910156 40 -40 40 s -40 -17.910156 -40 -40 s 17.910156 -40 40 -40 m 0 -3 c -23.710938 0 -43 19.289062 -43 43 s 19.289062 43 43 43 s 43 -19.289062 43 -43 s -19.289062 -43 -43 -43 z m 0 0"/>
        </g>
    </g>
    <g mask="url(#d)">
        <g clip-path="url(#e)" transform="matrix(1 0 0 1 -168 -16)">
            <path d="m 70 106 c -7.179688 0 -13 -5.246094 -13 -12.425781 v -36 c 0 -7.179688 5.820312 -12.574219 13 -12.574219 s 13 5.394531 13 12.574219 v 36 c 0 7.179687 -5.820312 12.425781 -13 12.425781 z m 0 0"/>
        </g>
    </g>
    <g mask="url(#f)">
        <g clip-path="url(#g)" transform="matrix(1 0 0 1 -168 -16)">
            <path d="m 70 30 l -6 -10 h 12 z m 0 0"/>
        </g>
    </g>
    <path d="m 8 3 l -2 -3 h 4 z m 0 0" fill="#241f31"/>
</svg>
