<?xml version="1.0" encoding="UTF-8"?>
<svg height="128px" viewBox="0 0 128 128" width="128px" xmlns="http://www.w3.org/2000/svg">
    <path d="m 123 64 c 0 33.136719 -26.863281 60 -60 60 s -60 -26.863281 -60 -60 s 26.863281 -60 60 -60 s 60 26.863281 60 60 z m 0 0" fill="#1a5fb4"/>
    <path d="m 63 10.625 c -1.945312 0.011719 -3.890625 0.128906 -5.824219 0.355469 l -2.109375 8.425781 c -2.550781 0.453125 -5.058594 1.125 -7.492187 2.003906 l -6.039063 -6.238281 c -3.566406 1.566406 -6.949218 3.519531 -10.089844 5.824219 l 2.386719 8.351562 c -1.984375 1.667969 -3.816406 3.5 -5.484375 5.484375 l -8.351562 -2.386719 c -2.304688 3.140626 -4.257813 6.523438 -5.824219 10.089844 l 6.242187 6.039063 c -0.882812 2.433593 -1.554687 4.941406 -2.007812 7.492187 l -8.425781 2.105469 c -0.222657 1.9375 -0.34375 3.882813 -0.355469 5.828125 c 0.011719 1.945312 0.132812 3.890625 0.355469 5.824219 l 8.425781 2.109375 c 0.453125 2.550781 1.125 5.058594 2.003906 7.492187 l -6.238281 6.039063 c 1.566406 3.566406 3.519531 6.949218 5.824219 10.089844 l 8.351562 -2.386719 c 1.667969 1.984375 3.5 3.816406 5.484375 5.484375 l -2.386719 8.351562 c 3.140626 2.304688 6.523438 4.257813 10.089844 5.824219 l 6.039063 -6.238281 c 2.433593 0.878906 4.941406 1.550781 7.492187 2.003906 l 2.109375 8.425781 c 1.933594 0.222657 3.878907 0.34375 5.824219 0.355469 c 1.945312 -0.011719 3.890625 -0.132812 5.828125 -0.355469 l 2.105469 -8.425781 c 2.550781 -0.453125 5.058594 -1.125 7.492187 -2.003906 l 6.039063 6.238281 c 3.566406 -1.566406 6.949218 -3.519531 10.089844 -5.824219 l -2.386719 -8.351562 c 1.984375 -1.667969 3.816406 -3.5 5.484375 -5.484375 l 8.351562 2.386719 c 2.304688 -3.140626 4.257813 -6.523438 5.824219 -10.089844 l -6.238281 -6.039063 c 0.878906 -2.433593 1.550781 -4.941406 2.003906 -7.492187 l 8.425781 -2.109375 c 0.226563 -1.933594 0.34375 -3.878907 0.355469 -5.824219 c 0 -1.945312 -0.109375 -3.886719 -0.320312 -5.816406 l -8.429688 -2.109375 c -0.457031 -2.5625 -1.132812 -5.074219 -2.015625 -7.519531 l 6.246094 -6.046876 c -1.566407 -3.558593 -3.519531 -6.9375 -5.820313 -10.074218 l -8.351562 2.390625 c -1.675782 -1.992188 -3.515625 -3.832031 -5.507813 -5.507813 l 2.390625 -8.351562 c -3.136718 -2.300782 -6.515625 -4.253906 -10.074218 -5.820313 l -6.046876 6.246094 c -2.445312 -0.886719 -4.957031 -1.558594 -7.519531 -2.015625 l -2.109375 -8.429688 c -1.929687 -0.210937 -3.871094 -0.320312 -5.816406 -0.320312 z m 0 0" fill="#241f31"/>
    <path d="m 63 13.5 c -1.84375 0.011719 -3.683594 0.125 -5.511719 0.335938 l -1.996093 7.972656 c -2.410157 0.429687 -4.78125 1.0625 -7.085938 1.898437 l -5.714844 -5.90625 c -3.375 1.484375 -6.574218 3.332031 -9.546875 5.511719 l 2.257813 7.902344 c -1.875 1.578125 -3.609375 3.3125 -5.1875 5.1875 l -7.902344 -2.257813 c -2.179688 2.972657 -4.027344 6.171875 -5.511719 9.546875 l 5.90625 5.714844 c -0.835937 2.300781 -1.46875 4.675781 -1.898437 7.085938 l -7.972656 1.996093 c -0.210938 1.828125 -0.324219 3.667969 -0.335938 5.511719 c 0.011719 1.84375 0.125 3.683594 0.335938 5.511719 l 7.972656 1.996093 c 0.429687 2.410157 1.0625 4.78125 1.898437 7.085938 l -5.90625 5.714844 c 1.484375 3.375 3.332031 6.574218 5.511719 9.546875 l 7.902344 -2.257813 c 1.578125 1.875 3.3125 3.609375 5.1875 5.1875 l -2.257813 7.902344 c 2.972657 2.179688 6.171875 4.027344 9.546875 5.511719 l 5.714844 -5.90625 c 2.304688 0.835937 4.675781 1.46875 7.085938 1.898437 l 1.996093 7.972656 c 1.828125 0.210938 3.667969 0.324219 5.511719 0.335938 c 1.84375 -0.011719 3.683594 -0.125 5.511719 -0.335938 l 1.996093 -7.972656 c 2.410157 -0.429687 4.78125 -1.0625 7.085938 -1.898437 l 5.714844 5.90625 c 3.375 -1.484375 6.574218 -3.332031 9.546875 -5.511719 l -2.257813 -7.902344 c 1.875 -1.578125 3.609375 -3.3125 5.1875 -5.1875 l 7.902344 2.257813 c 2.179688 -2.972657 4.027344 -6.171875 5.511719 -9.546875 l -5.90625 -5.714844 c 0.835937 -2.304688 1.46875 -4.675781 1.898437 -7.085938 l 7.972656 -1.996093 c 0.210938 -1.828125 0.324219 -3.667969 0.335938 -5.511719 c 0 -1.839844 -0.101562 -3.675781 -0.304688 -5.503906 l -7.976562 -1.996094 c -0.429688 -2.421875 -1.066406 -4.800781 -1.90625 -7.113281 l 5.910156 -5.71875 c -1.480468 -3.371094 -3.328125 -6.566407 -5.503906 -9.53125 l -7.90625 2.257812 c -1.582031 -1.882812 -3.324219 -3.625 -5.207031 -5.207031 l 2.257812 -7.90625 c -2.964843 -2.175781 -6.164062 -4.023438 -9.53125 -5.503906 l -5.71875 5.910156 c -2.3125 -0.839844 -4.691406 -1.476562 -7.113281 -1.90625 l -1.996094 -7.976562 c -1.828125 -0.203126 -3.664062 -0.304688 -5.503906 -0.304688 z m 0 0" fill="#deddda"/>
    <path d="m 63 22.960938 c 1.359375 0 2.460938 2.359374 2.460938 5.273437 v 26.953125 c 0 2.914062 -1.101563 5.273438 -2.460938 5.273438 s -2.460938 -2.359376 -2.460938 -5.273438 v -26.953125 c 0 -2.914063 1.101563 -5.273437 2.460938 -5.273437 z m 0 0" fill="#241f31"/>
    <path d="m 92.238281 64 c 0 1.359375 -2.359375 2.460938 -5.273437 2.460938 h -19.335938 c -2.914062 0 -5.273437 -1.101563 -5.273437 -2.460938 s 2.359375 -2.460938 5.273437 -2.460938 h 19.335938 c 2.914062 0 5.273437 1.101563 5.273437 2.460938 z m 0 0" fill="#241f31"/>
    <path d="m 70.265625 64 c 0 4.011719 -3.253906 7.265625 -7.265625 7.265625 s -7.265625 -3.253906 -7.265625 -7.265625 s 3.253906 -7.265625 7.265625 -7.265625 s 7.265625 3.253906 7.265625 7.265625 z m 0 0" fill="#a51d2d"/>
</svg>
