<?xml version="1.0" encoding="UTF-8"?>
<svg height="128px" viewBox="0 0 128 128" width="128px" xmlns="http://www.w3.org/2000/svg" xmlns:xlink="http://www.w3.org/1999/xlink">
    <filter id="a" height="100%" width="100%" x="0%" y="0%">
        <feColorMatrix color-interpolation-filters="sRGB" values="0 0 0 0 1 0 0 0 0 1 0 0 0 0 1 0 0 0 1 0"/>
    </filter>
    <linearGradient id="b" gradientUnits="userSpaceOnUse" x1="15.99999975" x2="111.999992" y1="111.99999275" y2="111.99999275">
        <stop offset="0" stop-color="#3584e4"/>
        <stop offset="0.0357143" stop-color="#99c1f1"/>
        <stop offset="0.0713653" stop-color="#62a0ea"/>
        <stop offset="0.928571" stop-color="#62a0ea"/>
        <stop offset="0.964286" stop-color="#99c1f1"/>
        <stop offset="1" stop-color="#3584e4"/>
    </linearGradient>
    <mask id="c">
        <g filter="url(#a)">
            <rect fill-opacity="0.1" height="153.6" width="153.6" x="-12.8" y="-12.8"/>
        </g>
    </mask>
    <clipPath id="d">
        <rect height="152" width="192"/>
    </clipPath>
    <mask id="e">
        <g filter="url(#a)">
            <rect fill-opacity="0.2" height="153.6" width="153.6" x="-12.8" y="-12.8"/>
        </g>
    </mask>
    <clipPath id="f">
        <rect height="152" width="192"/>
    </clipPath>
    <mask id="g">
        <g filter="url(#a)">
            <rect fill-opacity="0.2" height="153.6" width="153.6" x="-12.8" y="-12.8"/>
        </g>
    </mask>
    <clipPath id="h">
        <rect height="152" width="192"/>
    </clipPath>
    <path d="m 115.988281 56.003906 l 4.011719 49.996094 c 0.273438 4.328125 -3.785156 10 -8.011719 10 h -95.988281 c -4.226562 0 -8.273438 -5.679688 -8 -10 l 4.011719 -49.996094 c 2.921875 -33.996094 22.933593 -48.003906 51.972656 -48.003906 s 48.109375 18.007812 52.003906 48.003906 z m 0 0" fill="url(#b)"/>
    <path d="m 115.988281 52.003906 l 4 51.996094 c 0.269531 4.332031 -3.773437 8 -8 8 h -95.976562 c -4.226563 0 -8.269531 -3.679688 -8 -8 l 4 -51.996094 c 2.921875 -33.996094 22.933593 -48.003906 51.972656 -48.003906 s 48.109375 18.007812 52.003906 48.003906 z m 0 0" fill="#99c1f1"/>
    <path d="m 102 58 c 0 22.089844 -17.910156 40 -40 40 s -40 -17.910156 -40 -40 s 17.910156 -40 40 -40 s 40 17.910156 40 40 z m 0 0" fill="#ffffff"/>
    <g mask="url(#c)">
        <g clip-path="url(#d)" transform="matrix(1 0 0 1 -8 -16)">
            <path d="m 70 36 c 22.089844 0 40 17.910156 40 40 s -17.910156 40 -40 40 s -40 -17.910156 -40 -40 s 17.910156 -40 40 -40 m 0 -3 c -23.710938 0 -43 19.289062 -43 43 s 19.289062 43 43 43 s 43 -19.289062 43 -43 s -19.289062 -43 -43 -43 z m 0 0"/>
        </g>
    </g>
    <path d="m 62 18 c 22.089844 0 40 17.910156 40 40 s -17.910156 40 -40 40 s -40 -17.910156 -40 -40 s 17.910156 -40 40 -40 m 0 -3 c -23.710938 0 -43 19.289062 -43 43 s 19.289062 43 43 43 s 43 -19.289062 43 -43 s -19.289062 -43 -43 -43 z m 0 0" fill="#62a0ea"/>
    <g fill="none" stroke="#62a0ea" stroke-miterlimit="10" stroke-width="3">
        <path d="m 62 16 v 8.230469"/>
        <path d="m 62 91.769531 v 8.230469"/>
        <path d="m 104 58 h -8.230469"/>
        <path d="m 28.230469 58 h -8.230469"/>
        <path d="m 62 16 v 8.230469"/>
        <path d="m 62 91.769531 v 8.230469"/>
        <path d="m 41 21.628906 l 4.109375 7.121094"/>
        <path d="m 78.890625 87.25 l 4.109375 7.121094"/>
        <path d="m 41 21.628906 l 4.109375 7.121094"/>
        <path d="m 78.890625 87.25 l 4.109375 7.121094"/>
        <path d="m 25.628906 37 l 7.121094 4.109375"/>
        <path d="m 91.25 74.890625 l 7.121094 4.109375"/>
        <path d="m 83 21.628906 l -4.109375 7.121094"/>
        <path d="m 45.109375 87.25 l -4.109375 7.121094"/>
        <path d="m 98.371094 37 l -7.121094 4.109375"/>
        <path d="m 32.75 74.890625 l -7.121094 4.109375"/>
    </g>
    <g mask="url(#e)">
        <g clip-path="url(#f)" transform="matrix(1 0 0 1 -8 -16)">
            <path d="m 70 106 c -7.179688 0 -13 -5.246094 -13 -12.425781 v -36 c 0 -7.179688 5.820312 -12.574219 13 -12.574219 s 13 5.394531 13 12.574219 v 36 c 0 7.179687 -5.820312 12.425781 -13 12.425781 z m 0 0"/>
        </g>
    </g>
    <path d="m 62 89 c -7.179688 0 -13 -5.246094 -13 -12.425781 v -36 c 0 -7.179688 5.820312 -12.574219 13 -12.574219 s 13 5.394531 13 12.574219 v 36 c 0 7.179687 -5.820312 12.425781 -13 12.425781 z m 0 0" fill="#deddda"/>
    <path d="m 62 28 v 61 c 7.179688 0 13 -5.246094 13 -12.425781 v -36 c 0 -7.179688 -5.820312 -12.574219 -13 -12.574219 z m 0 0" fill="#c0bfbc"/>
    <g mask="url(#g)">
        <g clip-path="url(#h)" transform="matrix(1 0 0 1 -8 -16)">
            <path d="m 70 30 l -6 -10 h 12 z m 0 0"/>
        </g>
    </g>
    <path d="m 62 13 l -6 -10 h 12 z m 0 0" fill="#f66151"/>
</svg>
